<?xml version="1.0" standalone="no"?>
<!DOCTYPE svg PUBLIC "-//W3C//DTD SVG 20010904//EN"
 "http://www.w3.org/TR/2001/REC-SVG-20010904/DTD/svg10.dtd">
<svg version="1.0" xmlns="http://www.w3.org/2000/svg"
 width="566.000000pt" height="566.000000pt" viewBox="0 0 566.000000 566.000000"
 preserveAspectRatio="xMidYMid meet">

<g transform="translate(0.000000,566.000000) scale(0.100000,-0.100000)"
fill="#000000" stroke="none">
<path d="M0 2830 l0 -2830 2830 0 2830 0 0 2830 0 2830 -2830 0 -2830 0 0
-2830z m4047 2089 c52 -17 67 -28 105 -77 46 -59 88 -137 88 -163 0 -9 3 -19
7 -23 11 -10 55 -185 55 -216 0 -8 11 -61 25 -118 15 -65 24 -128 23 -175 -1
-39 5 -110 13 -157 8 -47 18 -134 22 -194 4 -60 8 -132 10 -160 7 -98 20 -601
16 -601 -1 0 -3 -34 -6 -75 -2 -41 -7 -86 -10 -100 -3 -14 -7 -41 -10 -60 -3
-19 -8 -48 -11 -65 -4 -16 -8 -48 -9 -70 -4 -57 -13 -124 -20 -135 -4 -6 -1
-10 4 -10 6 0 1 -16 -10 -36 -15 -27 -17 -39 -9 -44 16 -10 3 -67 -18 -80 -13
-7 -14 -11 -4 -18 15 -10 6 -43 -15 -55 -7 -4 -13 -20 -12 -35 0 -26 1 -26 9
-4 5 12 11 22 13 22 7 0 -1 -55 -13 -84 -5 -15 -8 -32 -5 -37 3 -5 1 -19 -6
-31 -7 -12 -13 -29 -13 -38 -2 -19 -34 -118 -48 -146 -5 -12 -9 -30 -7 -40 2
-17 -9 -52 -32 -96 -12 -24 -11 -28 6 -22 19 8 20 -5 2 -20 -16 -13 -53 -115
-60 -170 -4 -21 -14 -47 -23 -57 -9 -10 -13 -22 -10 -28 4 -6 2 -18 -3 -28
-17 -29 -41 -112 -41 -138 0 -14 -4 -33 -9 -43 -5 -9 -14 -30 -21 -47 -7 -16
-16 -37 -20 -46 -5 -9 -12 -34 -16 -55 -3 -22 -16 -49 -27 -61 -25 -28 -15
-43 13 -18 24 22 25 18 5 -29 -14 -32 -18 -36 -42 -30 -18 5 -24 4 -19 -5 4
-6 2 -11 -3 -11 -6 0 -11 -8 -11 -18 0 -10 -5 -23 -12 -30 -15 -15 -60 -16
-75 -1 -8 8 -13 5 -18 -10 -8 -28 -73 -96 -82 -87 -4 4 -1 16 6 28 10 16 10
19 0 16 -7 -2 -20 -18 -29 -34 -9 -16 -26 -30 -38 -32 -11 -2 -26 -9 -32 -17
-8 -10 -18 -11 -33 -5 -12 5 -39 12 -60 15 -32 5 -41 12 -53 40 -23 56 -17
105 26 211 84 204 267 846 346 1210 26 122 56 322 50 333 -2 3 2 58 10 121 8
64 16 246 19 410 7 478 -26 832 -111 1180 -53 220 -97 334 -166 432 -17 24 2
55 69 109 99 79 210 99 330 58z m-1853 -734 c65 -13 89 -23 132 -56 29 -23 56
-49 59 -59 3 -11 19 -30 35 -44 43 -36 69 -110 70 -203 1 -43 6 -95 11 -115 7
-27 5 -47 -7 -80 -8 -24 -17 -51 -18 -60 -3 -22 -45 -68 -62 -68 -6 0 -17 -6
-24 -14 -6 -8 -18 -12 -26 -9 -8 3 -30 -7 -48 -21 -19 -14 -40 -26 -47 -26 -7
0 -20 -6 -28 -14 -27 -22 -134 -39 -202 -32 -76 9 -150 45 -256 125 -83 63
-120 107 -149 179 -26 66 -15 185 26 282 37 87 63 112 157 146 36 13 72 29 80
36 25 20 117 47 168 47 28 1 86 -6 129 -14z m121 -1376 c44 -22 165 -146 165
-168 0 -8 7 -22 15 -31 9 -10 16 -32 15 -51 0 -19 0 -49 0 -66 0 -22 -5 -33
-14 -33 -10 0 -17 -16 -22 -46 -4 -26 -22 -74 -42 -108 -32 -56 -65 -162 -122
-391 -11 -44 -25 -88 -30 -97 -6 -10 -10 -26 -10 -35 -1 -10 -12 -49 -26 -88
-14 -38 -28 -78 -31 -87 -3 -10 -10 -18 -17 -18 -11 0 -46 -69 -46 -91 0 -7
-8 -26 -19 -43 -10 -17 -24 -48 -31 -68 -10 -35 -30 -52 -30 -28 0 6 -8 5 -20
-2 -11 -7 -20 -19 -20 -26 0 -29 -34 -84 -59 -95 -14 -6 -35 -18 -45 -26 -18
-15 -19 -14 -12 19 4 19 11 78 16 130 13 121 18 150 40 230 10 36 25 101 34
145 10 44 26 114 36 155 30 118 40 176 55 315 18 157 18 238 1 285 -12 33 -16
36 -77 46 -96 16 -219 87 -219 126 0 20 78 88 141 123 78 42 144 56 244 50 62
-4 101 -11 130 -26z"/>
<path d="M3850 950 c0 -5 7 -10 15 -10 8 0 15 5 15 10 0 6 -7 10 -15 10 -8 0
-15 -4 -15 -10z"/>
</g>
</svg>
