<?xml version="1.0" encoding="utf-8"?>
<!-- Created with Inkscape (http://www.inkscape.org/) -->

<svg
   fill="#000000"
   width="800px"
   height="800px"
   viewBox="0 0 210 297"
   role="img"
   xmlns="http://www.w3.org/2000/svg"><g
     id="layer1"><path
       style="fill:#f9f9f9;stroke-width:0.264583"
       d="m 30.211455,160.9879 3.786786,-3.26263 5.739019,-3.68678 2.724216,-1.14417 5.720858,-1.47108 3.850229,-0.39955 3.686773,0.0545 4.304266,0.67197 4.649332,1.58005 3.614129,2.37915 3.63229,3.68677 2.034082,3.28722 1.053365,3.23274 0.49036,1.68902 0.07265,2.96032 -0.07265,2.01592 -0.01815,0.58116 -0.381391,0.16346 H 74.60726 l -0.272423,0.19977 -0.254259,0.21794 -0.21794,0.30874 -0.27242,0.30875 -0.290584,0.4722 -0.108969,0.99887 -0.14529,1.10786 -0.01815,0.61748 -0.01815,0.56301 v 0.38139 l -0.09081,0.29058 -0.199776,0.59933 -0.236101,0.83543 -0.508519,1.10785 -0.726459,1.21681 -0.871749,1.47108 -0.871751,1.52556 -0.87175,1.81615 -0.63565,1.5074 -0.853589,2.12489 -1.489239,5.08521 -1.925113,6.42915 -2.015922,6.81054 -2.252019,7.88208 -1.325787,4.35875 -0.780942,2.56076 -0.236098,0.96256 -0.108969,0.25426 -0.49036,0.21793 -1.325787,1.03521 -0.726456,0.88991 -0.581168,0.92623 -0.417714,0.79911 -0.490357,1.28946 -0.690137,1.76166 -0.871749,2.25202 -0.799105,2.19754 -0.544843,1.08968 -0.635651,1.28947 -0.581165,0.94439 -0.635651,1.10785 -0.127133,0.18162 -0.27242,-0.2361 -0.272423,-0.32691 -0.435874,-0.0726 -0.326906,-0.0726 h -0.490358 l -0.399553,0.18161 -0.290583,0.25426 -0.308745,0.4722 -0.199777,0.49036 -0.27242,0.67197 -0.127132,0.69014 -0.217938,0.76278 -0.27242,0.50852 -0.472199,0.69014 -0.145291,0.39955 -0.272423,0.30874 -0.236098,0.29059 -0.345067,0.34507 -0.563004,0.58116 -0.544843,0.67197 -0.780944,0.50852 -0.726459,0.45404 -0.76278,0.45404 -0.61749,0.34507 -0.563005,0.27242 -0.417713,0.0726 -0.236098,0.0181 0.163451,-0.90807 0.07265,-0.49036 0.01815,-0.50852 0.01815,-1.10785 0.145293,-1.14417 0.145291,-0.4722 v -0.4722 -0.39955 -0.41771 l 0.108968,-0.56301 0.01815,-0.43587 0.05448,-0.34507 0.07265,-0.59933 0.671973,-4.66749 1.162333,-6.30202 0.508521,-2.76054 1.380271,-5.59373 1.089686,-4.37691 1.271302,-5.92063 1.634529,-6.71974 1.198658,-5.19418 1.234977,-6.33834 1.017043,-6.66526 0.236098,-2.05224 0.236098,-2.01592 0.12713,-1.79799 0.03632,-2.70605 0.03632,-2.48812 -0.03632,-2.16122 0.01815,-1.88879 -0.217937,-0.58116 -0.181616,-0.54485 -0.236098,-0.38139 -0.508521,-0.49036 -0.326906,-0.36323 -0.544843,-0.30874 -0.653812,-0.29058 -1.416595,-0.34507 -2.215695,-0.45404 -1.071528,-0.2361 -1.543722,-0.49036 -1.761662,-0.67197 -1.797984,-0.72646 -1.107848,-0.65381 -0.726458,-0.49036 -0.508521,-0.45404 -0.780942,-0.43587 -0.835427,-0.69014 -0.653812,-0.563 -0.49036,-0.43588 -0.671973,-0.58116 -0.76278,-0.83543 -0.381392,-0.10897 -0.290584,-0.25426 z"
       id="path5" /><path
       style="fill:#f9f9f9;stroke-width:0.264583"
       d="m 34.683999,113.08668 3.062605,1.37817 2.296953,0.99535 2.083523,0.61446 2.373114,0.53698 2.286502,0.15589 2.269181,0.0173 2.217213,-0.052 1.610945,-0.3118 1.195218,-0.12125 1.212541,-0.43305 0.623591,-0.17322 0.900742,-0.1559 1.143251,-0.3984 1.610945,-0.6236 0.900745,-0.32911 0.675558,-0.34644 0.796811,-0.4677 0.450371,-0.3984 0.675558,-0.27716 0.467693,-0.43304 0.381085,-0.17322 0.34644,-0.32912 0.675558,-0.17322 h 0.329118 l 0.485016,-0.17322 0.588946,-0.29448 1.212541,-0.31179 0.658235,-0.51966 0.7102,-0.57163 0.502338,-0.25983 0.623591,-0.2425 0.363763,-0.43305 1.004676,-0.97004 0.779488,-1.35111 0.433052,-0.38108 0.381082,-0.93539 0.450371,-0.69288 0.259831,-1.00468 0.259829,-0.60627 0.536983,-0.98735 v -1.83613 l 0.34644,-0.762167 -0.01733,-0.952712 0.03464,-0.935387 V 96.10241 L 74.796345,95.132378 74.484549,93.781262 74.103467,93.278924 74.0515,92.915162 74.03417,91.8412 74.172746,90.316864 v -3.135281 l -0.329118,-0.779489 -0.710203,-2.303825 -0.450371,-1.195215 -0.433049,-1.229863 -0.970031,-1.281827 -1.03932,-1.021998 -0.762167,-1.143251 -1.004676,-1.177896 -0.918064,-1.143252 -0.727525,-0.710199 -1.489691,-1.507014 -1.524336,-1.160574 -1.957385,-1.281827 -1.610945,-0.796811 -2.390434,-1.264504 -2.840807,-1.056643 -2.754196,-0.363762 -2.269181,-0.03464 -2.563653,-0.01733 -2.944739,0.277151 -2.598298,0.606269 -1.697556,1.073965 -1.732198,0.519658 -1.229863,0.225187 -0.277151,0.363762 -1.870776,1.004676 -1.74952,0.433049 -1.385758,0.814133 -2.338469,0.935387 -2.494368,0.675558 -1.073963,0.311796 -1.472369,2.321147 -1.143251,1.55898 -0.95271,2.390434 -0.831455,1.818809 -0.554304,1.507014 -0.17322,2.043994 -0.398406,0.8661 -0.485015,1.351116 -0.05197,1.507011 -0.25983,1.749523 v 1.299149 1.957385 l 0.138576,1.195215 0.207864,1.091287 0.571625,1.333794 0.710202,0.970031 0.935388,1.004667 0.155897,0.48502 0.987354,1.5763 0.762167,0.72752 1.03932,0.97004 0.536982,0.74484 0.987352,0.95271 0.952712,1.21254 1.351113,1.14325 0.918067,0.84878 0.796811,0.45037 0.623591,0.57163 1.039321,0.64091 0.987353,0.76217 1.073963,0.48502 z"
       id="path6" /><path
       style="fill:#f9f9f9;stroke-width:0.264583"
       d="m 145.36454,274.62715 0.84485,-0.78272 0.69577,-0.55909 0.70818,-0.48455 0.70819,-0.1491 0.52182,-0.13665 0.34788,-0.21122 0.0373,-0.17394 0.23607,-0.44728 0.33545,-0.85727 0.70819,-0.70819 1.20516,-0.88214 0.23606,-0.22363 0.22364,-0.0994 v 0.78274 0.49697 l -0.17394,0.31062 -0.0373,0.60878 v 0.33546 l 0.0621,0.0497 0.12425,-0.0497 0.48455,-0.38515 0.68333,-0.42244 0.42243,-0.19878 0.64607,-0.57152 0.49697,-0.54669 0.49697,-0.52181 0.49697,-0.7703 0.52183,-0.68334 0.0994,-0.49697 0.44728,-0.36031 v -0.45969 l 0.0621,-0.36031 0.60879,-0.22365 0.38515,0.3479 0.37273,0.34788 0.5591,0.12424 0.29818,0.1491 0.78273,0.087 h 0.84486 l 0.41,-0.1988 0.4597,-0.19878 0.54667,-0.50941 0.48455,-0.32303 0.3603,-0.55909 0.16152,-0.54667 0.24848,-0.43485 0.0124,-0.4597 0.16152,-0.17394 h 0.41 l 0.33546,-0.3106 0.22363,-0.31061 v -0.54667 l 0.16152,-0.38516 0.24849,-0.18636 0.37272,-0.12425 0.37273,-0.16151 0.38516,0.0994 0.27333,0.0497 0.34789,0.18636 0.13666,0.28577 0.0124,0.12424 0.13667,0.0373 0.21121,-0.24849 0.0249,-0.44727 0.27333,-0.17394 0.27334,-0.58394 0.17394,-0.32304 0.21121,-0.67091 0.28576,-0.37273 0.22364,-0.29818 0.12424,-0.62122 -0.0248,-0.19879 -0.64607,0.41 -0.29818,0.37273 -0.42243,0.43486 -0.27333,0.34787 -0.37273,0.13667 -0.39758,-0.0124 -0.12424,-0.18637 -0.23607,-0.33545 -0.0124,-0.49698 0.3603,-0.68333 0.84486,-1.26728 0.54667,-1.27971 0.38515,-0.4597 0.62122,-1.31698 0.58394,-1.93819 0.53425,-1.64001 0.54667,-1.80153 0.85727,-1.92577 0.78274,-1.59031 0.78273,-1.64001 0.0621,-0.68334 0.16152,-0.99394 -0.0124,-0.99395 0.32303,-1.54061 0.68334,-2.08729 0.96909,-2.27365 0.32304,-0.74546 0.16151,-0.37273 v -0.41 l -0.0497,-0.72061 0.0373,-1.09334 0.087,-0.5094 0.19879,-0.42243 0.27333,-0.42242 0.48455,-0.41001 0.34788,-0.21121 0.17394,-0.0248 0.39758,-0.0497 0.16152,-0.0994 -0.0497,-2.12456 0.0124,-0.47213 0.087,-0.28576 0.16152,-0.23606 0.14909,-1.49092 0.14909,-0.43485 0.0994,-0.44727 0.19879,-0.59637 0.31061,-1.15546 0.59636,-1.44123 0.80758,-1.88849 1.10577,-1.45365 0.52182,-0.88212 0.42243,-0.42243 0.0373,-0.27334 -0.17394,-0.16151 h -0.24849 -0.48455 -0.32303 l -0.19879,-0.0621 -0.087,-0.18637 0.0124,-0.32303 0.0621,-0.26091 0.16151,-0.37273 0.67092,-1.36667 1.59031,-4.1373 0.14909,-0.19879 0.0745,-0.54667 v -0.54667 l -0.24849,-0.42243 -0.11182,-0.5094 0.18637,-0.39757 0.12424,-0.17395 0.16152,-0.49697 0.47212,-1.18031 1.15546,-3.06881 1.4785,-4.16214 1.41637,-3.83912 v -0.49697 -0.23606 l -0.17394,-0.16152 -0.16152,-0.22364 v -0.27333 l 0.0124,-0.52182 0.17394,-0.63364 0.24848,-0.77031 0.19879,-0.11182 0.1491,-0.49697 0.18636,-0.68334 0.17394,-0.22364 0.18636,-0.32303 0.087,-0.28576 0.0124,-0.69576 -0.0124,-0.77031 -0.0621,-0.32303 -0.0621,-0.28576 -0.16151,-0.28576 -0.16152,-0.21121 -0.0994,-0.0248 v 0.24849 l -0.087,0.31061 -0.13667,0.34788 -0.17394,0.27333 -0.0124,0.0994 -0.0994,0.17394 -0.21121,0.47212 -0.26092,0.0248 -0.22363,-0.0994 v -0.0994 -0.4597 l 0.11182,-0.33546 0.24848,-0.83243 0.63364,-1.40395 0.34788,-0.49697 0.53425,-0.22364 0.26091,-0.57152 0.27333,-0.0994 0.0621,-0.48455 v -0.64606 l -0.44728,-0.44728 -0.27333,-0.21121 v -0.29819 l 0.27333,-0.18636 0.32303,-0.65849 0.19879,-0.43485 0.47213,-0.98152 0.43485,-1.36668 v -0.93182 l -0.17394,-0.63364 -0.27334,-0.57152 v -0.44728 l 0.13667,-0.80758 0.43485,-0.85728 0.48455,-0.94424 0.60879,-1.18031 0.24849,-0.85728 0.0248,-0.9691 0.087,-1.03122 0.42243,-1.59031 0.37273,-3.23032 0.9194,-5.82701 1.06025,-10.02512 0.4828,-9.10422 0.069,-6.27639 v -8.6904 l -0.069,-4.82799 -1.10354,-16.07033 -0.4828,-8.000677 -1.79326,-19.380957 -1.37942,-12.276902 -3.58652,-17.104899 -3.03474,-8.55245 -1.65531,-3.310625 -1.37943,-2.413998 -1.72428,-2.620912 -1.72429,-1.655313 -1.37942,-1.103542 -1.86223,-1.172513 -1.65531,-0.413828 -2.00017,-0.551771 -1.9312,-0.344857 -2.13811,-0.275886 h -2.414 l -3.03474,0.344857 -2.75885,0.758685 -3.03475,1.310456 -2.20708,1.379428 -2.20708,1.724284 -2.00017,1.862227 -0.62074,0.689713 -0.68972,0.482799 -0.75868,1.379429 v 0.689713 l 0.13794,0.896628 0.55177,0.9656 0.55177,0.689713 0.89663,1.172514 0.82766,1.172512 0.82765,1.448398 0.9656,2.414 1.72429,5.241821 1.86222,6.00051 2.20709,8.069651 2.82375,11.909157 1.96326,11.199498 1.24935,7.942273 0.93701,8.522324 0.75853,10.7533 0.40157,13.74281 -0.40157,14.32287 -0.80315,10.61944 -0.80315,7.94228 -1.29397,10.5302 -1.20473,7.40684 -2.14173,10.35173 -4.3281,19.4541 -2.18635,7.80842 -2.4987,9.19162 -2.85564,9.50395 -3.34647,10.03939 -4.64043,12.58271 -1.96326,5.44358 -1.65092,4.23886 -0.31233,1.65092 v 1.02624 l 0.22309,1.29397 0.26772,1.07087 0.40158,0.98163 0.71391,0.89239 0.75853,0.71392 1.02625,0.75851 1.6063,0.53544 1.29397,0.49083 1.42782,0.40158 1.11549,0.35695 0.65331,-0.0415 0.1965,-0.0573 z"
       id="path7" /></g></svg>
