<?xml version="1.0" encoding="UTF-8" standalone="no"?>
<!-- Created with Inkscape (http://www.inkscape.org/) -->

<svg
   fill="#000000"
   width="800px"
   height="800px"
   viewBox="0 0 210 297"
   xmlns="http://www.w3.org/2000/svg"><defs
     id="defs1" /><g
     id="g4"
     transform="matrix(1.1277711,0,0,1.0990523,-12.389351,-13.762429)"
     style="fill:#ffffff"><path
       style="fill:#ffffff;stroke-width:0.264583"
       d="M 53.802361,223.56709 53.902813,73.229874 H 176.55532 l 1.58715,-0.08036 2.39077,-0.462082 1.74787,-0.582623 2.3305,-1.104976 1.72778,-0.984436 1.32598,-1.084886 1.32597,-1.386245 0.96434,-1.165249 0.94426,-1.346065 0.96434,-1.747872 0.72326,-1.788057 0.50226,-1.546968 0.32145,-1.968868 0.0804,-2.02914 v -1.94878 l -0.2009,-1.386245 -0.48218,-1.66751 -0.58262,-1.928688 -0.8438,-1.506789 -0.8438,-1.466606 -1.64742,-2.02914 -1.7077,-1.607241 -2.35058,-1.687602 -2.00905,-1.044705 -1.7077,-0.542443 -1.44651,-0.220996 -2.04923,-0.160724 -2.87295,-0.281268 -142.542098,-0.100452 -2.430949,0.341538 -1.788057,0.462081 -1.325972,0.462082 -1.466606,0.683077 -1.466607,0.803622 -1.406335,0.984432 -1.245611,1.12507 -1.064796,1.004525 -0.843801,1.185338 -0.863892,1.386245 -0.863892,1.62733 -0.582624,1.205431 -0.642896,1.587148 -0.321448,1.265704 -0.140633,1.285793 -0.462082,189.614146 0.301357,1.20543 0.38172,1.32597 0.602715,1.64742 0.683077,1.60724 1.165249,1.94878 1.104978,1.4867 1.546968,1.48669 1.647421,1.36616 1.486697,0.86389 1.98896,0.80362 2.029142,0.60271 2.692124,0.58263 2.672038,0.18081 h 3.756925 l 137.519478,0.16073 1.66751,-0.12055 1.70769,-0.24108 2.04923,-0.34154 1.62733,-0.54244 2.06933,-0.98444 2.06932,-1.32597 1.18534,-1.16525 1.74787,-1.56706 1.94878,-2.49122 0.92416,-2.04923 0.80362,-2.3305 0.46208,-2.39077 -0.0603,-5.12308 -0.48217,-1.84833 -0.72326,-1.74787 -0.8438,-1.6876 -1.20543,-1.6876 -1.02462,-1.58715 -1.62733,-1.50679 -2.5314,-1.78805 -2.04923,-1.10498 -3.1743,-0.76344 -2.08941,-0.26118 -1.2657,-0.22099 z"
       id="path1" /><path
       style="fill:#ffffff;stroke-width:0.264583"
       d="m 92.209516,165.75911 c 0,0 -16.407481,-0.0629 -16.415603,-17.31333 -0.0081,-17.2512 19.429405,-17.5057 19.429405,-17.5057 l 81.244402,0.0641 c 0,0 16.92629,0.0638 16.99272,18.08281 0.0617,16.74932 -16.22323,16.73622 -16.22323,16.73622 z"
       id="path4" /></g></svg>
