<?xml version="1.0" encoding="UTF-8" standalone="no"?>
<!-- Created with Inkscape (http://www.inkscape.org/) -->

<svg
   fill="#000000"
   width="800px"
   height="800px"
   viewBox="0 0 1080 1080"
   xmlns="http://www.w3.org/2000/svg">
  <defs
     id="defs1" />
  <g
     id="layer1">
    <g
       id="g2"
       transform="matrix(2.5744327,0,0,2.5744327,-170.09604,37.002528)">
      <path
         d="m 237.57806,-2.377678 c -12.22326,37.484664 -22.61303,56.226996 -25.05768,59.690253 -11.81582,17.520006 -14.66792,26.076288 -18.74234,53.986065 -10.38977,6.92651 -17.52,15.27907 -23.02047,24.03908 -10.59349,17.31628 -19.96466,40.54048 -33.81769,59.69025 3.46326,30.96559 -4.07442,45.6335 -5.29674,75.78421 14.26047,48.4856 47.67071,79.45119 107.56469,119.78795 -1.42605,-10.38977 -1.22233,-19.35349 -1.01861,-25.2614 13.44559,13.44558 32.18792,24.03908 50.11537,33.0028 11.61209,-4.88931 27.09489,-13.03815 39.92931,-26.48373 0.20372,3.05581 0,11.20465 -1.0186,16.5014 16.29768,-13.03814 33.0028,-38.29955 41.15164,-63.56095 3.8707,-12.22326 4.48186,-21.18699 0.40744,-38.09583 -0.20372,-1.22233 4.68559,-7.53768 4.68559,-15.4828 0,-4.27814 -2.03721,-8.55628 -2.03721,-8.55628 19.35349,-6.51907 26.48373,-9.16744 39.72559,-25.87256 0.61116,-0.61117 5.90791,0.40744 7.94512,-1.42605 6.92651,-5.70419 14.05675,-15.89024 17.11256,-24.03908 1.83349,-4.68558 2.44466,-9.98233 2.64838,-15.68652 5.29674,-5.70418 10.38977,-12.42698 10.79721,-25.87256 -4.27814,-5.09303 -14.05675,-8.55628 -30.76187,-14.46419 -9.57489,-3.46326 -24.03908,-9.16745 -28.72466,-12.01954 2.44465,-3.66698 4.07442,-8.76001 4.07442,-11.6121 -0.20372,-3.8707 -4.27814,-10.18605 -6.7228,-15.4828 -2.24093,-7.94511 -3.66697,-13.44558 -5.9079,-16.501397 -3.05582,-4.481862 -6.31536,-6.11163 -12.01954,-9.371166 6.31535,-31.169313 -2.44466,-38.503269 -3.46326,-60.708858 -15.89024,-1.222326 -31.9842,22.001868 -36.05862,24.44652 -5.70419,3.666978 -11.61209,9.778608 -11.61209,9.778608 -15.27908,-6.11163 -22.00187,-6.519072 -32.79908,-4.07442 C 278.11854,24.717215 263.04318,4.548836 237.57806,-2.377678 Z"
         id="path1"
         style="stroke-width:2.03721" />
      <path
         class="st0"
         d="m 243.68969,13.105118 c -6.11163,17.316285 -24.2428,50.93025 -21.39071,89.229802 -2.44465,-0.81489 -5.70418,-1.83349 -8.55628,-3.666982 0.20372,7.945122 -1.0186,15.482792 -3.05581,19.964662 -16.90885,11.00093 -26.48373,28.31721 -34.83629,47.87443 16.09396,-18.94605 30.96559,-34.02141 47.46699,-37.68838 2.24093,-2.44466 4.68558,-6.31535 4.8893,-11.00094 3.66698,2.24093 8.55629,2.03721 11.81582,0.40744 -12.83442,-36.262334 -3.05581,-69.468857 7.7414,-83.118164 5.09302,10.389771 15.89024,12.22326 18.33489,26.891172 -3.66698,-3.259536 -9.77861,-4.278141 -12.83442,-3.055815 3.25953,7.537677 3.8707,12.426981 -2.8521,25.465125 0.81489,3.259536 2.64837,6.926514 5.70419,9.371166 -3.8707,0 -8.14884,2.852094 -9.77861,6.519076 4.68558,0 8.35256,2.64837 9.98233,5.50046 12.01954,-8.352558 15.4828,-19.353492 15.89024,-23.835354 3.66698,1.629768 6.72279,0.203721 6.72279,0.203721 -4.68558,-41.762805 -22.20559,-67.839093 -35.24373,-69.061419 z m 114.69492,30.354429 c -8.76,0.203721 -19.96466,15.075354 -23.63163,29.335824 5.29674,2.648373 12.22326,6.519072 18.33489,9.982329 -1.42605,-4.278141 -2.24093,-8.556282 -0.81489,-13.853028 -2.03721,0 -4.48186,0.814884 -5.90791,2.852094 -1.42604,-14.871633 3.66698,-11.612097 8.96373,-17.520006 0.40744,10.797213 4.27814,11.408376 6.31535,28.52094 3.66698,-18.742332 -2.44465,-27.298614 -3.25954,-39.318153 z M 320.28879,82.7777 c -12.63071,-0.203721 -12.42699,11.408376 -19.55722,18.53861 3.25953,2.24093 5.70419,6.72279 6.31535,10.18605 -15.68652,-1.83349 -15.27907,9.37117 -30.15071,18.74233 2.44465,2.8521 6.31535,5.09303 9.98233,6.31535 -2.85209,1.42605 -5.50047,3.66698 -7.13023,6.11163 14.05675,5.09303 18.53861,14.26047 25.87256,18.13117 2.8521,1.62977 11.6121,2.03721 15.4828,0.81489 -6.11163,10.59349 -22.40931,12.01954 -27.70606,9.16744 -5.29674,-2.85209 -10.38977,-13.85303 -15.07535,-17.52 -4.68558,-3.66698 -18.53861,-3.8707 -21.59443,-1.83349 -6.31535,4.07442 -11.00093,14.05675 -31.16931,21.3907 0.81488,2.03721 2.85209,4.88931 4.27814,6.11163 -3.8707,3.25954 -12.6307,4.88931 -12.6307,4.88931 4.48186,11.40837 14.87163,20.3721 24.85396,28.72466 -7.7414,-0.40745 -18.33489,-2.64838 -24.44652,-6.7228 14.26047,32.18792 30.76187,43.18886 51.13397,51.13397 -6.51907,2.8521 -15.27907,4.07442 -24.85396,2.03721 -10.18605,-2.03721 -23.02047,-9.37116 -33.20652,-19.55721 -1.62977,3.46326 -2.24093,7.33395 -2.44465,10.79721 -8.35257,-8.76 -13.85303,-15.89024 -16.09396,-30.96559 -8.55629,12.01954 -11.40838,26.89117 -1.22233,44.6149 1.22233,-4.27814 2.24093,-6.51907 4.27814,-8.96373 3.05582,11.40838 11.81582,21.59443 18.13117,27.70606 0.61116,-5.50047 1.22233,-9.16744 2.44465,-13.24186 12.42698,21.18698 33.20653,40.94792 59.89398,61.32002 -18.94606,-4.68559 -39.92932,-14.87164 -57.04188,-27.70606 -0.81489,4.27814 -1.22233,7.7414 -1.01861,12.6307 -22.00187,-14.05675 -38.70699,-24.85396 -54.80095,-46.65211 9.16745,28.1135 15.07536,41.55909 60.70886,77.82143 -0.20372,-6.51908 -0.20372,-11.00094 0.61116,-17.11257 25.26141,21.39071 50.52281,36.8735 67.43165,43.80002 21.59443,-7.13024 40.54048,-25.05769 50.93025,-38.70699 0.61117,3.66698 0.40745,7.74139 -0.20372,12.22326 15.68652,-19.3535 18.53861,-36.46606 16.09396,-44.20746 -2.44465,7.13024 -6.11163,11.00093 -10.79721,16.09396 0.61116,-4.27814 0.81488,-7.94512 0,-12.42698 -6.11163,8.96372 -22.00187,22.20559 -33.20652,24.44652 9.98233,-17.72373 19.55721,-48.4856 -5.50047,-66.61677 2.44465,-4.07442 5.29675,-6.92651 10.79721,-7.53768 -7.13023,-8.14884 -15.48279,-12.01953 -27.29861,-11.81581 4.48186,-3.66698 11.40837,-6.7228 19.96466,-6.92652 10.59349,-0.40744 24.44652,3.25954 38.50327,13.03815 19.55721,4.27814 42.78141,-10.38978 46.04094,-15.27908 0.40744,-0.61116 0.40744,-1.22233 -0.20372,-1.62977 -1.22233,-0.61116 -3.66698,-1.0186 -7.94512,-1.0186 -11.00093,0.40744 -18.53861,2.85209 -35.04001,-1.01861 -17.31629,-4.07442 -26.68745,-14.05675 -47.67071,-14.87163 18.33489,-13.85303 31.57675,1.42605 48.07815,5.70419 26.89117,7.13023 51.33769,-6.31535 56.63444,-6.7228 1.62977,1.01861 3.25954,3.25954 4.48186,4.88931 3.66698,-1.01861 7.94512,-7.53768 9.37117,-11.20466 0.81488,-2.24093 2.03721,-5.29674 1.62977,-7.33395 -1.83349,1.22232 -5.90791,2.44465 -8.55629,3.05581 -3.25953,-1.42604 -6.51907,-4.27814 -7.74139,-6.72279 -3.66698,-8.55628 -11.40838,-10.79721 -12.63071,-14.26047 -1.22232,-3.05582 2.44466,-11.00093 5.70419,-14.46419 2.8521,-2.8521 8.96373,-4.27814 14.66791,-4.48186 -17.52,-6.7228 -31.98419,-11.40838 -42.98513,-18.94606 -3.25953,-2.24093 -5.09302,-4.27814 -5.90791,-9.98233 0,0 0.81489,1.22233 3.66698,2.24094 3.8707,1.22232 4.07442,-3.25954 6.11163,-5.09303 1.22233,0.81489 2.24093,2.44465 2.64837,3.66698 1.01861,-1.42605 1.83349,-3.25954 1.83349,-5.29675 0,-1.42604 -1.42604,-4.8893 -5.29674,-10.79721 -1.83349,-6.51907 -3.25954,-11.00093 -4.27814,-13.44559 -0.61117,-1.42604 -1.42605,-4.07442 -5.29675,-5.50046 -1.83349,2.24093 -2.03721,6.51907 -2.85209,18.53861 -4.07442,-17.11257 -8.55629,-22.816754 -18.33489,-30.761873 4.07442,8.963724 5.50046,15.279073 6.51907,29.743263 C 344.53158,98.260496 331.69716,82.981421 320.28879,82.7777 Z m 0.81488,36.05862 c 11.6121,2.64837 17.11256,15.48279 22.81675,17.92744 2.44465,1.01861 7.33396,1.22233 9.57489,0.40745 0.20372,2.44465 -1.22233,4.68558 -2.8521,6.31535 0.81489,1.0186 2.24093,1.83349 3.8707,2.24093 3.05582,2.85209 2.44465,9.98233 -2.24093,17.31628 -4.27814,-8.35256 -11.00093,-13.85302 -16.90884,-15.68651 -2.03721,1.83349 -9.98233,4.07442 -16.90884,2.64837 -5.70419,-1.22233 -15.68652,-14.05675 -22.61304,-15.89024 7.13024,-6.31535 17.11257,-13.24186 26.28001,-9.77861 0,-2.44465 -0.20372,-4.27814 -1.0186,-5.50046 z m 2.85209,14.26047 c -3.66697,0 -6.11163,1.0186 -8.35256,2.64837 1.62977,3.8707 5.29675,5.90791 7.53768,6.72279 1.42605,0.40744 6.51907,0 8.96372,-2.44465 -3.25953,-2.24093 -5.29674,-5.09302 -8.14884,-6.92651 z m 108.78702,40.13303 c -5.29675,-0.20372 -12.42698,2.03721 -15.4828,4.68559 2.44465,1.22232 3.8707,2.44465 5.50047,4.27814 4.48186,-2.24093 8.35256,-2.44465 9.37116,-1.22233 0.81489,1.01861 0.40745,4.88931 -0.81488,8.96373 3.05581,-2.8521 7.33396,-9.77861 6.51907,-14.87164 -0.81488,-1.22232 -2.64837,-1.62977 -5.09302,-1.83349 z"
         id="path2"
         style="fill:#ffffff;stroke-width:2.03721" />
    </g>
  </g>
</svg>
