<?xml version="1.0" encoding="UTF-8" standalone="no"?>
<!-- Created with Inkscape (http://www.inkscape.org/) -->

<svg
   fill="#000000"
   width="800px"
   height="800px"
   viewBox="0 0 720 720"
   xmlns="http://www.w3.org/2000/svg"><defs
     id="defs1" /><g
     id="layer1"><g
       id="g22"
       transform="matrix(1.0231351,0,0,1.0231351,-10.77303,-3.5058984)"><path
         style="fill:#51b3f6;fill-opacity:1;stroke-width:1.35566"
         d="m 290.53537,516.98824 c -9.25189,-5.28889 -22.36136,-16.2257 -29.65483,-24.74011 -19.40131,-22.64909 -29.19117,-45.50134 -37.5979,-87.7639 -6.44143,-32.38249 -12.25094,-47.04376 -25.03334,-63.1758 -12.26995,-15.48526 -29.89997,-27.84447 -51.32134,-35.9779 -3.09752,-1.17609 -3.06596,-1.27083 3.54991,-10.65683 33.36135,-47.33006 93.05979,-67.70623 146.44004,-49.98265 47.73872,15.85044 82.77279,57.98983 91.82316,110.44597 1.21099,7.0189 2.43269,13.13572 2.71489,13.59296 0.28221,0.45722 2.10513,8.38782 4.05091,17.62355 6.98763,33.16691 18.4549,61.85764 33.3156,83.3544 12.00574,17.3669 32.657,36.815 49.97792,47.06616 l 6.10047,3.61047 -94.21826,-0.003 -94.21825,-0.003 z"
         id="path19" /><path
         style="fill:#72e7fa;fill-opacity:1;stroke-width:1.35566"
         d="M 99.676449,518.31953 C 63.293837,510.33349 32.075245,480.03991 21.907624,442.85503 7.201648,389.07251 32.162688,333.28008 80.568487,311.73742 c 15.291436,-6.80535 24.659773,-8.7483 41.626803,-8.63323 13.71224,0.093 17.14128,0.62189 28.46843,4.39087 38.26686,12.73286 64.857,44.32668 72.51532,86.1611 3.44955,18.84346 9.73161,44.16085 13.32906,53.71756 11.10687,29.50566 28.96009,52.70793 52.47059,68.19142 l 7.35686,4.84507 -94.18733,-0.13612 c -73.33893,-0.10598 -96.0211,-0.53863 -102.471771,-1.95456 z"
         id="path20" /><path
         style="fill:#173d87;fill-opacity:1;stroke-width:1.35566"
         d="m 650.00428,455.16689 c -32.93068,-9.39147 -54.73756,-29.64401 -67.47035,-62.66123 -5.73972,-14.88357 -12.87893,-45.3507 -18.32948,-78.22248 -2.53445,-15.28505 -5.8358,-32.05938 -7.33633,-37.27629 -1.50053,-5.21691 -2.72824,-10.01894 -2.72824,-10.67119 0,-0.65528 9.25024,-0.88188 20.67379,-0.50644 23.9432,0.78689 36.10478,3.46385 53.4885,11.77365 36.40986,17.40472 61.67298,47.7015 74.67249,89.55095 3.36101,10.82014 3.58066,13.17709 3.60071,38.63625 0.0177,22.50846 -0.41,28.6097 -2.51849,35.92495 -1.3969,4.84647 -3.24221,9.58004 -4.1007,10.51902 -2.38841,2.6124 -19.22118,5.71036 -30.58534,5.62905 -5.76052,-0.0413 -14.15465,-1.20986 -19.36656,-2.69624 z"
         id="path21" /><path
         style="fill:#2860c9;fill-opacity:1;stroke-width:1.35566"
         d="m 471.56371,511.98712 c -33.87728,-23.63909 -55.99406,-53.56726 -69.10012,-93.50539 -2.615,-7.96867 -7.56835,-27.18513 -11.00747,-42.70323 -8.09386,-36.52146 -10.86923,-46.44409 -16.29432,-58.25624 -13.05032,-28.41479 -37.25536,-53.90393 -63.97965,-67.3739 -10.71835,-5.40241 -25.71039,-10.05373 -39.69579,-12.31569 -6.93966,-1.12241 -12.92913,-2.35231 -13.30994,-2.73311 -0.99052,-0.99052 8.28121,-14.67764 17.60751,-25.99254 16.78139,-20.35962 39.63367,-36.76604 65.48413,-47.01327 32.70506,-12.96442 73.70064,-14.05667 107.87361,-2.87407 47.11847,15.41881 89.23156,58.8185 105.55975,108.78471 2.18501,6.6864 5.28066,20.30707 6.87921,30.26816 4.68761,29.21007 12.19595,66.07046 15.83948,77.76006 1.85921,5.96489 6.44547,17.25075 10.19168,25.07968 6.09279,12.73281 8.18853,15.60912 19.86659,27.26611 14.81146,14.7847 25.35896,20.82029 45.12362,25.82107 9.5558,2.41778 13.52338,2.72304 25.54713,1.96564 7.82892,-0.49318 16.28323,-1.26486 18.78734,-1.71486 4.16187,-0.74792 4.47514,-0.5731 3.64729,2.03522 -2.89517,9.12186 -11.86078,22.22351 -22.55958,32.96682 -10.12502,10.16712 -13.58925,12.66138 -25.78182,18.56297 -24.4929,11.85534 -21.09937,11.44798 -99.49162,11.94276 l -69.13857,0.43636 z"
         id="path22" /></g></g></svg>
